<svg width="122" height="31" viewBox="0 0 122 31" fill="none" xmlns="http://www.w3.org/2000/svg">
<g clip-path="url(#clip0_6_2051)">
<path fill-rule="evenodd" clip-rule="evenodd" d="M100.094 15.3068C100.606 17.2831 101.353 18.2712 102.293 18.2712C103.083 18.2712 104.044 17.9031 105.154 17.1475L107.033 15.8881C107.481 16.0431 107.716 16.3337 107.716 16.76C107.716 16.8375 107.673 17.0118 107.588 17.3025C107.481 17.6125 107.439 17.7868 107.439 17.8062V17.8643C107.439 18.0387 107.417 18.2518 107.396 18.5618C107.054 19.3175 106.585 20.4412 106.008 21.9718C105.815 22.1656 105.453 22.7856 104.898 23.8706C104.919 23.8706 104.919 23.8512 104.919 23.8512V23.8706C104.919 23.89 104.727 24.3937 104.321 25.3625C104.107 25.8856 103.808 26.5831 103.425 27.4162C103.382 27.6294 103.296 27.9975 103.19 28.5206C103.169 28.6175 103.083 28.85 102.912 29.2375C102.763 29.5475 102.698 29.78 102.698 29.9544C102.698 30.0125 102.72 30.0706 102.741 30.1094C102.613 30.3225 102.357 30.5744 101.994 30.9037H101.524C101.311 30.555 101.204 30.2837 101.204 30.1287C101.204 29.4894 101.674 28.0944 102.592 25.9437C102.954 25.0912 103.403 24.1031 103.937 22.9793C104.107 22.6887 104.406 22.1656 104.791 21.3906C104.919 21.0225 105.068 20.6737 105.218 20.4025C105.346 20.2087 105.581 19.705 105.901 18.8525C105.88 18.8331 105.88 18.7943 105.88 18.7556C105.88 18.6975 105.901 18.6006 105.922 18.5037C105.944 18.4456 105.944 18.4068 105.944 18.3875C105.944 18.3293 105.922 18.2906 105.88 18.2906C105.815 18.2906 105.389 18.4262 104.62 18.7168C103.83 19.0075 103.425 19.1431 103.382 19.1431C103.232 19.1431 102.87 19.1818 102.315 19.2593C101.759 19.3368 101.418 19.3756 101.353 19.3756C100.777 19.3756 100.265 18.9493 99.7946 18.1162C99.3894 17.38 99.1753 16.7212 99.1753 16.1012C99.1753 15.9268 99.2823 15.6556 99.4743 15.3068H100.094ZM38.2183 6.45249C40.5456 6.45249 42.4031 7.14996 43.7696 8.56434C45.1574 9.97871 45.8407 11.955 45.8407 14.4737L45.8193 14.7643H33.4785C33.5211 16.1981 34.0336 17.3606 35.0157 18.2325C35.9979 19.1043 37.1721 19.55 38.5386 19.55C40.4175 19.55 41.8907 18.6781 42.9583 16.915L45.5845 18.1162C44.8799 19.3562 43.8978 20.325 42.6593 21.0225C41.3997 21.7006 39.9905 22.0687 38.4105 22.0687C36.1046 22.0687 34.2044 21.3325 32.7098 19.86C31.2152 18.3875 30.4679 16.5081 30.4679 14.2606C30.4679 12.0325 31.1938 10.1531 32.6457 8.68059C34.0976 7.18871 35.9551 6.45249 38.2183 6.45249ZM50.666 0.13623V6.89809L50.5379 8.93246H50.666C51.1784 8.17684 51.9044 7.55684 52.8652 7.11121C53.8046 6.64621 54.8722 6.41374 56.0251 6.41374C58.0962 6.41374 59.8469 7.16934 61.2775 8.69996C62.7507 10.2306 63.4766 12.0906 63.4766 14.2412C63.4766 16.4112 62.7294 18.2712 61.2775 19.7825C59.8469 21.2937 58.0962 22.0687 56.0251 22.0687C54.8722 22.0687 53.826 21.8362 52.8652 21.3712C51.9044 20.9062 51.1784 20.3056 50.666 19.55H50.5379V21.5843H47.7196V0.13623H50.666ZM6.64017 6.41374C8.02796 6.41374 9.2877 6.72371 10.398 7.34371C11.5082 7.96371 12.2982 8.79684 12.7466 9.82371L10.1204 10.8506C9.8215 10.2306 9.33043 9.74621 8.66849 9.39746C7.98529 9.04871 7.23803 8.87434 6.40531 8.87434C5.63667 8.87434 4.95344 9.04871 4.33426 9.41684C3.73643 9.78496 3.41617 10.2112 3.41617 10.7343C3.41617 11.5675 4.24885 12.1681 5.95694 12.5362L8.32689 13.0981C11.4868 13.815 13.0455 15.2875 13.0455 17.4962C13.0455 18.775 12.4476 19.86 11.252 20.7318C10.0564 21.6037 8.54043 22.0493 6.72558 22.0493C5.1456 22.0493 3.75778 21.6618 2.56212 20.8868C1.36646 20.1118 0.512425 19.1043 0 17.845L2.62618 16.7987C3.0105 17.6706 3.56563 18.3681 4.31291 18.8525C5.03884 19.3368 5.85019 19.5887 6.72558 19.5887C7.66503 19.5887 8.45503 19.395 9.07416 19.0268C9.69337 18.6393 10.0136 18.1937 10.0136 17.6706C10.0136 16.7406 9.24503 16.0431 7.70769 15.5975L5.01749 14.9775C1.96429 14.2606 0.427021 12.885 0.427021 10.8506C0.427021 9.51371 1.0035 8.44809 2.17781 7.63434C3.35211 6.82059 4.82534 6.41374 6.64017 6.41374ZM71.3338 6.41374C73.5118 6.41374 75.2198 6.95621 76.5004 8.04121C77.7604 9.12621 78.4011 10.6181 78.4011 12.5168V21.565H75.5829V19.5306H75.4545C74.2374 21.2162 72.615 22.0493 70.5865 22.0493C68.8571 22.0493 67.4052 21.565 66.2523 20.6156C65.078 19.6662 64.5015 18.465 64.5015 17.0118C64.5015 15.5006 65.1207 14.28 66.3377 13.3887C67.5547 12.4975 69.1987 12.0325 71.2484 12.0325C72.9995 12.0325 74.43 12.3231 75.5829 12.9237V12.3037C75.5829 11.3543 75.177 10.5406 74.3658 9.86246C73.5546 9.18434 72.5936 8.85496 71.5049 8.85496C69.8606 8.85496 68.5582 9.51371 67.5974 10.8118L64.9926 9.28121C66.4231 7.38246 68.5368 6.41374 71.3338 6.41374ZM17.7427 0.13623V6.89809L17.6146 8.93246H17.7427C18.1911 8.21559 18.8743 7.61496 19.8137 7.13059C20.7319 6.64621 21.714 6.41374 22.7175 6.41374C24.6391 6.41374 26.1123 6.93684 27.1585 7.96371C28.2047 8.99059 28.7172 10.4631 28.7172 12.3618V21.5843H25.7707V12.9043C25.7707 10.2693 24.511 8.95184 22.0129 8.95184C20.8173 8.95184 19.8137 9.41684 18.9811 10.3468C18.1484 11.2768 17.7427 12.3618 17.7427 13.6018V21.6037H14.7963V0.13623H17.7427ZM88.2866 12.9043C88.3295 12.9043 88.9694 13.2143 90.2294 13.815C91.4679 14.435 92.13 14.745 92.1935 14.745C92.2363 14.745 93.0054 14.4543 94.4573 13.8731C95.9091 13.2918 96.7846 13.0012 97.0835 13.0012C97.4031 13.0012 97.8305 13.1756 98.3641 13.5437V13.97C98.3213 13.9893 97.9375 14.0281 97.2326 14.0862C97.1042 14.1056 96.293 14.28 94.7983 14.6481C94.3931 14.745 93.9657 15.0743 93.4963 15.6556C94.2004 16.4306 95.3748 17.2831 97.0193 18.2325C97.8091 18.6975 98.2578 18.9687 98.3213 19.0268C98.3213 19.5112 97.9796 19.7631 97.3182 19.7631C97.0621 19.7631 96.1439 19.2593 94.585 18.2325C93.0054 17.2056 92.1721 16.7018 92.1086 16.7018C91.0406 16.7018 89.8876 17.6318 88.6284 19.5112C88.5214 19.6662 88.4572 19.86 88.4358 20.1118C88.4144 20.4218 88.3929 20.6156 88.3723 20.7125C88.2866 21.0031 88.0305 21.2356 87.6246 21.3906C87.6032 21.255 87.5389 20.9837 87.4112 20.5962C87.3042 20.2475 87.2614 19.9956 87.2614 19.8018C87.2614 19.3368 87.5389 18.7556 88.1154 18.0968C88.2075 17.9955 88.358 17.8483 88.5685 17.6558L88.7375 17.5029C89.2191 17.0727 89.9404 16.4619 90.9129 15.675C90.5711 15.3068 90.1017 14.9968 89.461 14.745L87.8379 14.0862C87.7102 13.7956 87.6674 13.6018 87.6674 13.5243C87.6674 13.1175 87.8807 12.9043 88.2866 12.9043ZM115.68 13.0206C116.171 13.1368 116.406 13.4856 116.406 14.0668C116.406 14.8418 115.68 15.83 114.228 17.0312C114.121 17.1281 113.054 17.9806 111.004 19.5887C111.132 19.7243 111.324 19.7825 111.581 19.7825H111.88C111.88 19.7631 113.011 19.6662 115.296 19.4918C116.406 19.4143 117.794 19.2981 119.48 19.1431C119.502 19.1431 119.63 19.1043 119.907 19.0268C120.185 18.9493 120.356 18.9106 120.42 18.9106C120.89 18.9493 121.359 19.1043 121.807 19.4531C121.381 19.6275 120.953 19.7631 120.527 19.8987C120.185 19.9956 119.544 20.0925 118.583 20.17L116.619 20.325C116.449 20.3831 116.15 20.48 115.68 20.6156C114.506 20.8868 113.267 21.0225 111.943 21.0225C111.517 21.0225 110.962 20.9643 110.278 20.8287C109.467 20.6737 108.997 20.48 108.826 20.2475V19.4531L111.943 17.2831C113.139 16.45 114.079 15.6362 114.762 14.8031C114.655 14.5318 114.485 14.3768 114.249 14.3768H114.036C113.95 14.3768 113.332 14.5125 112.179 14.745C111.026 14.9968 110.385 15.1131 110.235 15.1131C110.129 15.1131 109.83 15.0162 109.381 14.8418C109.381 14.8225 109.381 14.745 109.36 14.59C109.338 14.4543 109.338 14.3768 109.338 14.3381C109.338 14.2025 109.36 14.0862 109.403 14.0087L115.68 13.0206ZM83.077 18.4262C83.3118 18.4262 83.5251 18.5425 83.7391 18.7943C83.9738 19.0075 84.0587 19.2593 84.0587 19.4918C84.0587 19.6856 83.8454 19.9181 83.4188 20.2281C83.0128 20.5187 82.6711 20.6737 82.4363 20.6737C82.2016 20.6737 81.8171 20.5575 81.3048 20.3056C81.369 20.0343 81.4967 19.6856 81.6894 19.2206C81.8171 19.0656 82.0518 18.9106 82.3721 18.7168C82.6925 18.5231 82.9272 18.4262 83.077 18.4262ZM71.6968 14.28C70.5011 14.28 69.4976 14.5512 68.7076 15.0937C67.9176 15.6168 67.512 16.295 67.512 17.0893C67.512 17.8062 67.8322 18.4068 68.4941 18.8912C69.1346 19.3756 69.9033 19.6081 70.7787 19.6081C72.0171 19.6081 73.1273 19.1818 74.0883 18.3293C75.0486 17.4768 75.5401 16.4693 75.5401 15.3068C74.6219 14.6287 73.3406 14.28 71.6968 14.28ZM55.5341 8.97121C54.1035 8.97121 52.9078 9.47496 51.947 10.4631C51.0076 11.4706 50.5379 12.73 50.5379 14.2606C50.5379 15.8106 51.0076 17.0893 51.947 18.0968C52.9078 19.0462 54.1035 19.55 55.5341 19.55C56.9432 19.55 58.1389 19.0462 59.0783 18.0581C60.0391 17.07 60.5302 15.8106 60.5302 14.2606C60.5302 12.73 60.0605 11.4512 59.0783 10.4631C58.1175 9.45559 56.9219 8.97121 55.5341 8.97121ZM38.1543 8.93246C37.0441 8.93246 36.0833 9.24246 35.2933 9.88184C34.4819 10.5406 33.9481 11.3931 33.6919 12.4781H42.7021C42.6167 11.4512 42.1683 10.6181 41.3783 9.93996C40.5669 9.26184 39.4994 8.93246 38.1543 8.93246Z" fill="black"/>
</g>
<defs>
<clipPath id="clip0_6_2051">
<rect width="122" height="31" fill="white"/>
</clipPath>
</defs>
</svg>
