<svg width="119" height="18" viewBox="0 0 119 18" fill="none" xmlns="http://www.w3.org/2000/svg">
<path fill-rule="evenodd" clip-rule="evenodd" d="M96.6145 17.6327C96.6145 14.6159 96.6145 4.43507 96.6145 1.38227C96.6145 0.755872 97.0336 0.388672 97.6548 0.388672C98.77 0.388672 100.536 0.388672 101.651 0.388672C102.265 0.388672 103.006 0.777472 103.515 1.37507C105.319 3.50627 109.405 8.33027 109.405 8.33027C109.405 8.33027 109.405 3.49187 109.405 0.388672H115.46C115.46 4.42787 115.46 13.6511 115.46 16.6751C115.46 17.2871 115.048 17.6399 114.435 17.6399C113.319 17.6399 111.561 17.6399 110.445 17.6399C109.824 17.6399 109.091 17.2655 108.589 16.6751C106.793 14.5583 102.677 9.69827 102.677 9.69827C102.677 9.69827 102.677 15.5231 102.677 17.6327H96.6145Z" fill="#253289"/>
<path fill-rule="evenodd" clip-rule="evenodd" d="M25.0274 0.374387C24.0395 3.73679 22.3256 9.53278 22.3256 9.53278C22.3256 9.53278 20.7314 3.68639 20.0878 1.34639C19.9306 0.755987 19.3992 0.388788 18.8005 0.388788C17.9323 0.388788 16.7049 0.388788 15.8367 0.388788C15.2305 0.388788 14.6916 0.777587 14.527 1.38959C13.8758 3.76559 12.2892 9.56878 12.2892 9.56878C12.2892 9.56878 10.5229 3.77279 9.48255 0.388788H3.54004C4.82733 4.45679 7.73123 13.68 8.68174 16.6824C8.86884 17.2872 9.40023 17.64 10.0139 17.64C11.0468 17.64 12.6334 17.64 13.6663 17.64C14.28 17.64 14.8263 17.2584 15.0284 16.668C15.7244 14.5944 17.3036 9.91438 17.3036 9.91438C17.3036 9.91438 18.8753 14.58 19.5788 16.6608C19.7809 17.2584 20.3273 17.64 20.941 17.64C21.9738 17.64 23.5605 17.64 24.5933 17.64C25.207 17.64 25.7384 17.28 25.933 16.6608C26.891 13.6296 29.8024 4.39919 31.0522 0.367188H25.0274V0.374387Z" fill="#253289"/>
<path fill-rule="evenodd" clip-rule="evenodd" d="M49.2016 0.359863C49.2016 3.44866 49.2016 13.6655 49.2016 16.6751C49.2016 17.2871 49.5908 17.6399 50.2269 17.6399C52.4423 17.6399 58.0405 17.6399 60.2484 17.6399C60.8846 17.6399 61.2738 17.6399 61.2738 17.6399C61.2738 17.6399 61.2738 17.2439 61.2738 16.6751C61.2738 15.2711 61.2738 12.8447 61.2738 12.8447H55.2564C55.2564 12.8447 55.2564 3.31186 55.2564 0.359863H49.2016Z" fill="#253289"/>
<path fill-rule="evenodd" clip-rule="evenodd" d="M57.9732 0.388672C57.9732 2.77187 57.9732 5.18387 57.9732 5.18387H63.1897C63.1897 5.18387 63.1897 13.7303 63.1897 16.6679C63.1897 17.2799 63.1897 17.6471 63.1897 17.6471C63.1897 17.6471 63.6088 17.6471 64.2226 17.6471C65.3377 17.6471 67.104 17.6471 68.2192 17.6471C68.8329 17.6471 69.2445 17.6471 69.2445 17.6471C69.2445 17.6471 69.2445 17.2799 69.2445 16.6679C69.2445 13.7303 69.2445 5.18387 69.2445 5.18387H74.4611C74.4611 5.18387 74.4611 2.77907 74.4611 0.388672H57.9732Z" fill="#253289"/>
<path fill-rule="evenodd" clip-rule="evenodd" d="M84.0409 5.70935C82.8884 5.70935 81.9453 6.61655 81.9453 7.72535V10.3101C81.9453 11.4189 82.8958 12.3261 84.0409 12.3261H87.0122C88.1573 12.3261 89.1078 11.4117 89.1078 10.3101V7.72535C89.1078 6.62375 88.1648 5.70935 87.0122 5.70935H84.0409ZM82.327 0.388548C78.0236 0.388548 76.3845 2.40455 76.3845 6.10535V11.9301C76.3845 15.6093 78.0161 17.6469 82.327 17.6469H88.7336C93.0146 17.6469 94.6761 15.5949 94.6761 11.9301V6.09815C94.6761 2.36135 93.0146 0.381348 88.7336 0.381348H82.327V0.388548Z" fill="#253289"/>
<path fill-rule="evenodd" clip-rule="evenodd" d="M47.5251 17.6398L47.2108 16.6678C46.2603 13.651 43.3489 4.44215 42.3834 1.38215C42.1814 0.748548 41.6724 0.381348 41.0437 0.381348C39.2999 0.381348 35.7748 0.381348 34.016 0.381348C33.3798 0.381348 32.8634 0.741348 32.6614 1.36775C31.7034 4.41335 28.792 13.651 27.8415 16.675L27.5421 17.6398H33.5969C33.5969 17.6398 33.7166 17.2222 33.8813 16.6606C34.2106 15.5446 34.7046 13.867 34.7046 13.867H40.3702C40.3702 13.867 40.8566 15.5374 41.1859 16.6534L41.4703 17.6398H47.5251ZM39.2999 10.2958H35.7598L37.5261 4.08215L39.2999 10.2958Z" fill="#253289"/>
</svg>
