<svg width="25" height="25" viewBox="0 0 25 25" fill="none" xmlns="http://www.w3.org/2000/svg">
<path d="M7.8125 14.0625H7.03125C5.30518 14.0625 3.90625 15.4639 3.90625 17.1934V20.3066C3.90625 22.0356 5.30518 23.4375 7.03125 23.4375H7.8125C8.67529 23.4375 9.375 22.7363 9.375 21.8721V15.6279C9.375 14.7632 8.67529 14.0625 7.8125 14.0625ZM17.9688 14.0625H17.1875C16.3247 14.0625 15.625 14.7632 15.625 15.6279V21.8721C15.625 22.7363 16.3247 23.4375 17.1875 23.4375H17.9688C19.6948 23.4375 21.0938 22.0356 21.0938 20.3066V17.1934C21.0938 15.4644 19.6948 14.0625 17.9688 14.0625ZM12.5 1.5625C5.51318 1.5625 0.223145 7.37939 0 14.0625V19.5312C0 19.9629 0.349609 20.3125 0.78125 20.3125H1.5625C1.99414 20.3125 2.34375 19.9629 2.34375 19.5312V14.0625C2.34375 8.46338 6.90088 3.91602 12.5 3.91504C18.0991 3.91602 22.6562 8.46338 22.6562 14.0625V19.5312C22.6562 19.9629 23.0059 20.3125 23.4375 20.3125H24.2188C24.6504 20.3125 25 19.9629 25 19.5312V14.0625C24.7769 7.37939 19.4868 1.5625 12.5 1.5625Z" fill="#0087E9"/>
</svg>
