<svg width="434" height="433" viewBox="0 0 434 433" fill="none" xmlns="http://www.w3.org/2000/svg">
<path d="M291.953 156.962C254.817 62.3975 182.07 122.002 146.481 157.435C21.0608 282.305 153.234 326.526 234.998 333.027C350.695 339.415 321.783 218.466 291.953 156.962Z" fill="#70225E"/>
<path d="M314.8 206.362C335.475 106.894 241.969 116.964 192.79 127.141C19.4804 163.007 105.898 272.355 170.771 322.546C264.106 391.214 306.105 274.164 314.8 206.362Z" fill="#C34396"/>
<path d="M312.872 176.337C305.758 74.9921 218.501 110.076 173.934 133.226C16.8763 214.808 129.742 296.579 205.806 327.267C314.281 368.009 322.915 243.952 312.872 176.337Z" fill="white"/>
</svg>
