<svg width="136" height="136" viewBox="0 0 136 136" fill="none" xmlns="http://www.w3.org/2000/svg">
<circle cx="68" cy="68" r="65" stroke="#01B9F7" stroke-width="6"/>
<path d="M74.3543 53.4168C76.3892 53.8138 78.2593 54.809 79.7253 56.275C81.1913 57.741 82.1865 59.6111 82.5835 61.646M74.3543 45.0835C78.582 45.5532 82.5243 47.4464 85.534 50.4523C88.5437 53.4582 90.4418 57.3981 90.9168 61.6252M88.8335 78.2502V84.5002C88.8358 85.0804 88.717 85.6547 88.4845 86.1863C88.2521 86.7179 87.9112 87.1951 87.4836 87.5874C87.0561 87.9796 86.5513 88.2783 86.0017 88.4641C85.4521 88.65 84.8697 88.7191 84.2918 88.6668C77.881 87.9703 71.7231 85.7796 66.3126 82.271C61.279 79.0724 57.0113 74.8047 53.8126 69.771C50.2918 64.336 48.1007 58.1481 47.4168 51.7085C47.3648 51.1324 47.4332 50.5517 47.6179 50.0035C47.8025 49.4553 48.0993 48.9516 48.4892 48.5244C48.8792 48.0971 49.3539 47.7558 49.883 47.5221C50.4122 47.2884 50.9842 47.1674 51.5626 47.1668H57.8126C58.8237 47.1569 59.8039 47.5149 60.5705 48.1742C61.3371 48.8335 61.8378 49.749 61.9793 50.7502C62.2431 52.7503 62.7323 54.7142 63.4376 56.6043C63.7179 57.35 63.7786 58.1604 63.6125 58.9395C63.4463 59.7186 63.0603 60.4337 62.5001 61.0002L59.8543 63.646C62.8201 68.8617 67.1386 73.1803 72.3543 76.146L75.0001 73.5002C75.5666 72.94 76.2817 72.554 77.0608 72.3879C77.8399 72.2217 78.6503 72.2824 79.396 72.5627C81.2861 73.268 83.25 73.7572 85.2501 74.021C86.2622 74.1638 87.1864 74.6735 87.8471 75.4533C88.5078 76.233 88.8588 77.2284 88.8335 78.2502Z" stroke="black" stroke-width="2" stroke-linecap="round" stroke-linejoin="round"/>
</svg>
