<svg width="136" height="136" viewBox="0 0 136 136" fill="none" xmlns="http://www.w3.org/2000/svg">
<circle cx="68" cy="68" r="65" stroke="#01B9F7" stroke-width="6"/>
<path d="M86.75 63.8335C86.75 78.4168 68 90.9168 68 90.9168C68 90.9168 49.25 78.4168 49.25 63.8335C49.25 58.8607 51.2254 54.0916 54.7417 50.5752C58.2581 47.0589 63.0272 45.0835 68 45.0835C72.9728 45.0835 77.7419 47.0589 81.2582 50.5752C84.7746 54.0916 86.75 58.8607 86.75 63.8335Z" stroke="black" stroke-width="2" stroke-linecap="round" stroke-linejoin="round"/>
<path d="M68 70.0835C71.4518 70.0835 74.25 67.2853 74.25 63.8335C74.25 60.3817 71.4518 57.5835 68 57.5835C64.5482 57.5835 61.75 60.3817 61.75 63.8335C61.75 67.2853 64.5482 70.0835 68 70.0835Z" stroke="black" stroke-width="2" stroke-linecap="round" stroke-linejoin="round"/>
</svg>
