<svg width="19" height="19" viewBox="0 0 19 19" fill="none" xmlns="http://www.w3.org/2000/svg">
<path d="M9.50356 5.23257C7.14341 5.23257 5.2397 7.13628 5.2397 9.49644C5.2397 11.8566 7.14341 13.7603 9.50356 13.7603C11.8637 13.7603 13.7674 11.8566 13.7674 9.49644C13.7674 7.13628 11.8637 5.23257 9.50356 5.23257ZM9.50356 12.2685C7.97837 12.2685 6.73149 11.0253 6.73149 9.49644C6.73149 7.96753 7.97466 6.72437 9.50356 6.72437C11.0325 6.72437 12.2756 7.96753 12.2756 9.49644C12.2756 11.0253 11.0288 12.2685 9.50356 12.2685ZM14.9364 5.05815C14.9364 5.61108 14.4911 6.05269 13.9418 6.05269C13.3889 6.05269 12.9473 5.60737 12.9473 5.05815C12.9473 4.50894 13.3926 4.06362 13.9418 4.06362C14.4911 4.06362 14.9364 4.50894 14.9364 5.05815ZM17.7604 6.06753C17.6973 4.7353 17.393 3.55522 16.417 2.58296C15.4448 1.61069 14.2647 1.3064 12.9325 1.2396C11.5594 1.16167 7.44399 1.16167 6.07095 1.2396C4.74243 1.30269 3.56235 1.60698 2.58638 2.57925C1.6104 3.55151 1.30981 4.73159 1.24302 6.06382C1.16509 7.43687 1.16509 11.5523 1.24302 12.9253C1.3061 14.2576 1.6104 15.4376 2.58638 16.4099C3.56235 17.3822 4.73872 17.6865 6.07095 17.7533C7.44399 17.8312 11.5594 17.8312 12.9325 17.7533C14.2647 17.6902 15.4448 17.3859 16.417 16.4099C17.3893 15.4376 17.6936 14.2576 17.7604 12.9253C17.8383 11.5523 17.8383 7.44058 17.7604 6.06753ZM15.9866 14.3986C15.6971 15.1259 15.1368 15.6863 14.4057 15.9794C13.311 16.4136 10.7133 16.3134 9.50356 16.3134C8.2938 16.3134 5.69243 16.4099 4.60142 15.9794C3.87407 15.69 3.31372 15.1296 3.02056 14.3986C2.58638 13.3039 2.68657 10.7062 2.68657 9.49644C2.68657 8.28667 2.59009 5.6853 3.02056 4.59429C3.31001 3.86694 3.87036 3.30659 4.60142 3.01343C5.69614 2.57925 8.2938 2.67944 9.50356 2.67944C10.7133 2.67944 13.3147 2.58296 14.4057 3.01343C15.1331 3.30288 15.6934 3.86323 15.9866 4.59429C16.4208 5.68901 16.3206 8.28667 16.3206 9.49644C16.3206 10.7062 16.4208 13.3076 15.9866 14.3986Z" fill="#0087E9"/>
</svg>
