<svg width="19" height="19" viewBox="0 0 19 19" fill="none" xmlns="http://www.w3.org/2000/svg">
<path d="M4.90883 16.6251H1.46211V5.5257H4.90883V16.6251ZM3.18361 4.01164C2.08146 4.01164 1.1875 3.09875 1.1875 1.9966C1.1875 1.4672 1.3978 0.95948 1.77215 0.585136C2.14649 0.210792 2.65421 0.000488281 3.18361 0.000488281C3.71302 0.000488281 4.22073 0.210792 4.59508 0.585136C4.96942 0.95948 5.17973 1.4672 5.17973 1.9966C5.17973 3.09875 4.28539 4.01164 3.18361 4.01164ZM17.8088 16.6251H14.3695V11.222C14.3695 9.9343 14.3435 8.28293 12.5775 8.28293C10.7855 8.28293 10.5109 9.68195 10.5109 11.1292V16.6251H7.06785V5.5257H10.3736V7.03977H10.4218C10.882 6.1677 12.006 5.24738 13.683 5.24738C17.1713 5.24738 17.8125 7.54445 17.8125 10.528V16.6251H17.8088Z" fill="#0087E9"/>
</svg>
