<svg width="1347" height="808" viewBox="0 0 1347 808" fill="none" xmlns="http://www.w3.org/2000/svg">
<ellipse cx="673.5" cy="404" rx="673.5" ry="404" fill="url(#paint0_radial_204_4551)"/>
<path d="M288.317 75.1509V101.684" stroke="#DFEFF6" stroke-width="15" stroke-linecap="round"/>
<path d="M327.652 13.8379V163.715" stroke="#DFEFF6" stroke-width="15" stroke-linecap="round"/>
<path d="M365.758 50.4106V126.425" stroke="#DFEFF6" stroke-width="15" stroke-linecap="round"/>
<path d="M405.093 15.9893V160.847" stroke="#DFEFF6" stroke-width="15" stroke-linecap="round"/>
<path d="M441.969 70.8486V106.346" stroke="#DFEFF6" stroke-width="15" stroke-linecap="round"/>
<path d="M481.304 46.4668V130.369" stroke="#DFEFF6" stroke-width="15" stroke-linecap="round"/>
<path d="M519.41 24.5942V152.241" stroke="#DFEFF6" stroke-width="15" stroke-linecap="round"/>
<path d="M557.516 38.9375V137.9" stroke="#DFEFF6" stroke-width="15" stroke-linecap="round"/>
<path d="M595.621 77.6611V99.1748" stroke="#DFEFF6" stroke-width="15" stroke-linecap="round"/>
<path d="M174 77.6611V99.1748" stroke="#DFEFF6" stroke-width="15" stroke-linecap="round"/>
<path d="M633.727 77.6611V99.1748" stroke="#DFEFF6" stroke-width="15" stroke-linecap="round"/>
<path d="M212.105 77.6611V99.1748" stroke="#DFEFF6" stroke-width="15" stroke-linecap="round"/>
<path d="M673.062 67.2632V109.573" stroke="#DFEFF6" stroke-width="15" stroke-linecap="round"/>
<path d="M251.441 67.2632V109.573" stroke="#DFEFF6" stroke-width="15" stroke-linecap="round"/>
<path d="M711.167 18.1406V158.696" stroke="#DFEFF6" stroke-width="15" stroke-linecap="round"/>
<path d="M749.273 17.7822V159.054" stroke="#DFEFF6" stroke-width="15" stroke-linecap="round"/>
<path d="M787.379 43.5977V133.237" stroke="#DFEFF6" stroke-width="15" stroke-linecap="round"/>
<path d="M826.714 21.7266V155.11" stroke="#DFEFF6" stroke-width="15" stroke-linecap="round"/>
<path d="M864.819 50.7695V126.067" stroke="#DFEFF6" stroke-width="15" stroke-linecap="round"/>
<path d="M901.696 26.7461V150.091" stroke="#DFEFF6" stroke-width="15" stroke-linecap="round"/>
<path d="M941.031 64.7529V112.082" stroke="#DFEFF6" stroke-width="15" stroke-linecap="round"/>
<path d="M979.137 77.6611V99.1748" stroke="#DFEFF6" stroke-width="15" stroke-linecap="round"/>
<path d="M1018.47 35.3511V141.485" stroke="#DFEFF6" stroke-width="15" stroke-linecap="round"/>
<path d="M1055.35 21.7266V155.11" stroke="#DFEFF6" stroke-width="15" stroke-linecap="round"/>
<path d="M1094.68 21.7266V155.11" stroke="#DFEFF6" stroke-width="15" stroke-linecap="round"/>
<path d="M1132.79 54.355V122.481" stroke="#DFEFF6" stroke-width="15" stroke-linecap="round"/>
<path d="M1172.12 75.1509V101.684" stroke="#DFEFF6" stroke-width="15" stroke-linecap="round"/>
<path d="M1209 77.6611V99.1748" stroke="#31669F" stroke-opacity="0.1" stroke-width="15" stroke-linecap="round"/>
<path d="M288.317 640.637V667.17" stroke="#DFEFF6" stroke-width="15" stroke-linecap="round"/>
<path d="M327.652 579.323V729.201" stroke="#DFEFF6" stroke-width="15" stroke-linecap="round"/>
<path d="M365.758 615.896V691.911" stroke="#DFEFF6" stroke-width="15" stroke-linecap="round"/>
<path d="M405.093 581.475V726.333" stroke="#DFEFF6" stroke-width="15" stroke-linecap="round"/>
<path d="M441.969 636.334V671.832" stroke="#DFEFF6" stroke-width="15" stroke-linecap="round"/>
<path d="M481.304 611.952V695.855" stroke="#DFEFF6" stroke-width="15" stroke-linecap="round"/>
<path d="M519.41 590.08V717.727" stroke="#DFEFF6" stroke-width="15" stroke-linecap="round"/>
<path d="M557.516 604.423V703.385" stroke="#DFEFF6" stroke-width="15" stroke-linecap="round"/>
<path d="M595.621 643.146V664.66" stroke="#DFEFF6" stroke-width="15" stroke-linecap="round"/>
<path d="M174 643.146V664.66" stroke="#DFEFF6" stroke-width="15" stroke-linecap="round"/>
<path d="M633.727 643.146V664.66" stroke="#DFEFF6" stroke-width="15" stroke-linecap="round"/>
<path d="M212.105 643.146V664.66" stroke="#DFEFF6" stroke-width="15" stroke-linecap="round"/>
<path d="M673.062 632.749V675.059" stroke="#DFEFF6" stroke-width="15" stroke-linecap="round"/>
<path d="M251.441 632.749V675.059" stroke="#DFEFF6" stroke-width="15" stroke-linecap="round"/>
<path d="M711.167 583.626V724.181" stroke="#DFEFF6" stroke-width="15" stroke-linecap="round"/>
<path d="M749.273 583.268V724.54" stroke="#DFEFF6" stroke-width="15" stroke-linecap="round"/>
<path d="M787.379 609.083V698.723" stroke="#DFEFF6" stroke-width="15" stroke-linecap="round"/>
<path d="M826.714 587.212V720.596" stroke="#DFEFF6" stroke-width="15" stroke-linecap="round"/>
<path d="M864.819 616.255V691.552" stroke="#DFEFF6" stroke-width="15" stroke-linecap="round"/>
<path d="M901.696 592.231V715.576" stroke="#DFEFF6" stroke-width="15" stroke-linecap="round"/>
<path d="M941.031 630.238V677.568" stroke="#DFEFF6" stroke-width="15" stroke-linecap="round"/>
<path d="M979.137 643.146V664.66" stroke="#DFEFF6" stroke-width="15" stroke-linecap="round"/>
<path d="M1018.47 600.837V706.97" stroke="#DFEFF6" stroke-width="15" stroke-linecap="round"/>
<path d="M1055.35 587.212V720.596" stroke="#DFEFF6" stroke-width="15" stroke-linecap="round"/>
<path d="M1094.68 587.212V720.596" stroke="#DFEFF6" stroke-width="15" stroke-linecap="round"/>
<path d="M1132.79 619.841V687.967" stroke="#DFEFF6" stroke-width="15" stroke-linecap="round"/>
<path d="M1172.12 640.637V667.17" stroke="#DFEFF6" stroke-width="15" stroke-linecap="round"/>
<path d="M1209 643.146V664.66" stroke="#31669F" stroke-opacity="0.1" stroke-width="15" stroke-linecap="round"/>
<defs>
<radialGradient id="paint0_radial_204_4551" cx="0" cy="0" r="1" gradientUnits="userSpaceOnUse" gradientTransform="translate(673.5 404) rotate(90) scale(471.41 812.57)">
<stop stop-color="#02A5F4" stop-opacity="0.47"/>
<stop offset="0.866385" stop-color="#A3B2C9" stop-opacity="0"/>
</radialGradient>
</defs>
</svg>
